<svg xmlns="http://www.w3.org/2000/svg" viewBox="0 0 800 558" role="img" aria-label="PnL chart with benchmark bars">
  <style>
    .label { font-family: ui-monospace, SFMono-Regular, Menlo, monospace; font-size: 11px; }
    .title { font-family: -apple-system, "Segoe UI", sans-serif; font-size: 13px; font-weight: bold; }
  </style>
  <rect width="800" height="558" fill="#0d1117"/>

  <!-- ===== 上半：折线图（用户三线趋势）===== -->
  <text x="50" y="20" fill="#c9d1d9" class="title">📈 实盘 PnL 趋势 (最近 30 天)</text>
  <line x1="50" y1="139.8" x2="770" y2="139.8"
        stroke="#30363d" stroke-width="1" stroke-dasharray="4 4"/>
  <text x="44" y="143.8" text-anchor="end" fill="#6e7681" class="label">0%</text>
  <text x="44" y="40" text-anchor="end" fill="#3fb950" class="label">+</text>
  <text x="44" y="208" text-anchor="end" fill="#f85149" class="label">−</text>
  <text x="50" y="228" fill="#6e7681" class="label">30 天前</text>
  <text x="770" y="228" text-anchor="end" fill="#6e7681" class="label">今天</text>

  <polyline points="50.0,94.0 55.0,94.4 60.0,94.4 65.0,94.4 70.0,94.4 75.0,94.4 80.0,94.4 85.0,94.4 90.0,94.4 95.0,90.9 100.0,90.9 105.0,90.9 110.0,90.9 115.0,90.9 120.0,90.9 125.0,90.9 130.0,90.9 135.0,90.8 140.0,90.8 145.0,90.8 150.0,90.8 155.0,90.8 160.0,90.8 165.0,90.8 170.0,90.8 175.0,92.1 180.0,92.1 185.0,92.1 190.0,92.1 195.0,92.1 200.0,92.1 205.0,92.1 210.0,92.1 215.0,92.8 220.0,92.8 225.0,92.8 230.0,92.8 235.0,92.8 240.0,92.8 245.0,92.8 250.0,92.8 255.0,94.9 260.0,94.9 265.0,94.9 270.0,94.9 275.0,94.9 280.0,94.9 285.0,94.9 290.0,94.9 295.0,91.5 300.0,91.5 305.0,91.5 310.0,91.5 315.0,91.5 320.0,91.5 325.0,91.5 330.0,91.5 335.0,94.4 340.0,94.4 345.0,94.4 350.0,94.4 355.0,94.4 360.0,94.4 365.0,94.4 370.0,94.4 375.0,88.6 380.0,88.6 385.0,88.6 390.0,88.6 395.0,88.6 400.0,88.6 405.0,88.6 410.0,88.6 415.0,86.5 420.0,86.5 425.0,86.5 430.0,86.5 435.0,86.5 440.0,86.5 445.0,86.5 450.0,86.5 455.0,66.0 460.0,66.0 465.0,66.0 470.0,66.0 475.0,66.0 480.0,66.0 485.0,66.0 490.0,66.0 495.0,62.2 500.0,62.2 505.0,62.2 510.0,62.2 515.0,62.2 520.0,62.2 525.0,62.2 530.0,62.2 535.0,61.1 540.0,61.1 545.0,61.1 550.0,61.1 555.0,61.1 560.0,61.1 565.0,61.1 570.0,61.1 575.0,59.8 580.0,59.8 585.0,59.8 590.0,59.8 595.0,59.8 600.0,59.8 605.0,59.8 610.0,59.8 615.0,61.8 620.0,61.8 625.0,61.8 630.0,61.8 635.0,61.8 640.0,61.8 645.0,61.8 650.0,61.8 655.0,58.6 660.0,58.6 665.0,58.6 670.0,58.6 675.0,58.6 680.0,58.6 685.0,58.6 690.0,58.6 695.0,53.9 700.0,53.9 705.0,53.9 710.0,53.9 715.0,53.9 720.0,53.9 725.0,53.9 730.0,53.9 735.0,50.8 740.0,50.8 745.0,50.8 750.0,50.8 755.0,50.8 760.0,50.8 765.0,50.8 770.0,50.8" fill="none" stroke="#58a6ff" stroke-width="1.5" opacity="0.85"/>
  <polyline points="50.0,161.4 55.0,160.5 60.0,157.2 65.0,155.3 70.0,156.3 75.0,155.0 80.0,156.3 85.0,151.4 90.0,151.4 95.0,150.7 100.0,151.4 105.0,151.6 110.0,153.1 115.0,151.8 120.0,152.6 125.0,160.1 130.0,157.1 135.0,157.4 140.0,157.2 145.0,156.0 150.0,158.7 155.0,160.1 160.0,160.4 165.0,160.1 170.0,160.9 175.0,164.0 180.0,162.1 185.0,161.9 190.0,159.7 195.0,159.7 200.0,160.7 205.0,160.0 210.0,158.4 215.0,160.5 220.0,158.1 225.0,158.9 230.0,157.5 235.0,160.7 240.0,162.4 245.0,165.5 250.0,164.3 255.0,167.2 260.0,167.6 265.0,167.0 270.0,164.8 275.0,164.7 280.0,166.5 285.0,164.6 290.0,162.7 295.0,171.3 300.0,168.3 305.0,169.5 310.0,170.6 315.0,173.2 320.0,172.2 325.0,171.7 330.0,172.9 335.0,172.3 340.0,168.4 345.0,167.9 350.0,167.4 355.0,167.5 360.0,166.0 365.0,166.3 370.0,165.0 375.0,172.5 380.0,171.9 385.0,170.6 390.0,169.3 395.0,169.1 400.0,169.1 405.0,164.3 410.0,164.8 415.0,165.6 420.0,165.5 425.0,164.5 430.0,161.4 435.0,162.1 440.0,163.7 445.0,164.7 450.0,166.1 455.0,166.3 460.0,166.6 465.0,167.2 470.0,169.0 475.0,168.5 480.0,169.0 485.0,168.4 490.0,169.6 495.0,165.8 500.0,167.3 505.0,166.0 510.0,167.1 515.0,168.8 520.0,169.9 525.0,170.8 530.0,172.4 535.0,171.2 540.0,171.1 545.0,171.5 550.0,172.9 555.0,173.7 560.0,174.2 565.0,173.6 570.0,174.8 575.0,173.6 580.0,172.8 585.0,173.4 590.0,172.7 595.0,171.2 600.0,170.3 605.0,170.7 610.0,173.2 615.0,189.2 620.0,187.4 625.0,188.6 630.0,187.5 635.0,187.2 640.0,186.5 645.0,186.3 650.0,185.3 655.0,183.6 660.0,183.0 665.0,183.4 670.0,183.0 675.0,181.5 680.0,183.4 685.0,180.7 690.0,184.5 695.0,187.2 700.0,186.1 705.0,183.6 710.0,183.3 715.0,186.1 720.0,184.4 725.0,183.3 730.0,184.5 735.0,185.8 740.0,185.7 745.0,183.5 750.0,183.7 755.0,183.6 760.0,183.7 765.0,180.6 770.0,184.8" fill="none" stroke="#f0a500" stroke-width="1.5" opacity="0.85"/>
  <polyline points="50.0,140.8 55.0,140.3 60.0,138.0 65.0,136.7 70.0,137.4 75.0,136.5 80.0,137.4 85.0,134.0 90.0,134.0 95.0,132.3 100.0,132.8 105.0,133.0 110.0,134.0 115.0,133.1 120.0,133.7 125.0,138.9 130.0,136.8 135.0,137.0 140.0,136.8 145.0,136.0 150.0,137.9 155.0,138.9 160.0,139.0 165.0,138.8 170.0,139.4 175.0,142.0 180.0,140.6 185.0,140.5 190.0,139.0 195.0,139.0 200.0,139.6 205.0,139.2 210.0,138.1 215.0,139.7 220.0,138.1 225.0,138.7 230.0,137.6 235.0,139.9 240.0,141.0 245.0,143.2 250.0,142.4 255.0,145.1 260.0,145.4 265.0,145.0 270.0,143.5 275.0,143.4 280.0,144.6 285.0,143.3 290.0,142.0 295.0,147.0 300.0,144.9 305.0,145.8 310.0,146.5 315.0,148.3 320.0,147.7 325.0,147.3 330.0,148.1 335.0,148.6 340.0,145.9 345.0,145.5 350.0,145.2 355.0,145.2 360.0,144.2 365.0,144.4 370.0,143.5 375.0,147.1 380.0,146.7 385.0,145.8 390.0,144.9 395.0,144.7 400.0,144.8 405.0,141.4 410.0,141.7 415.0,141.6 420.0,141.5 425.0,140.8 430.0,138.7 435.0,139.2 440.0,140.3 445.0,140.9 450.0,142.0 455.0,135.9 460.0,136.1 465.0,136.5 470.0,137.8 475.0,137.4 480.0,137.8 485.0,137.3 490.0,138.2 495.0,134.4 500.0,135.4 505.0,134.5 510.0,135.3 515.0,136.4 520.0,137.2 525.0,137.9 530.0,139.0 535.0,138.0 540.0,137.9 545.0,138.2 550.0,139.2 555.0,139.8 560.0,140.1 565.0,139.7 570.0,140.5 575.0,139.4 580.0,138.8 585.0,139.2 590.0,138.8 595.0,137.7 600.0,137.1 605.0,137.4 610.0,139.1 615.0,150.9 620.0,149.7 625.0,150.5 630.0,149.8 635.0,149.5 640.0,149.1 645.0,148.9 650.0,148.2 655.0,146.1 660.0,145.8 665.0,146.0 670.0,145.7 675.0,144.7 680.0,146.0 685.0,144.1 690.0,146.8 695.0,147.4 700.0,146.6 705.0,144.9 710.0,144.7 715.0,146.6 720.0,145.4 725.0,144.7 730.0,145.5 735.0,145.6 740.0,145.5 745.0,143.9 750.0,144.1 755.0,144.0 760.0,144.1 765.0,141.9 770.0,144.9" fill="none" stroke="#d29922" stroke-width="2.5"/>
  <text x="760" y="48" text-anchor="end" fill="#f85149" font-size="22" font-weight="bold">▼</text>

  <!-- 折线图图例 -->
  <g transform="translate(58, 42)" class="label">
    <line x1="0" y1="0" x2="14" y2="0" stroke="#d29922" stroke-width="2.5"/>
    <text x="20" y="4" fill="#c9d1d9" font-weight="bold">Total</text>
    <line x1="80" y1="0" x2="94" y2="0" stroke="#58a6ff" stroke-width="1.5"/>
    <text x="100" y="4" fill="#c9d1d9">资产 A</text>
    <line x1="170" y1="0" x2="184" y2="0" stroke="#f0a500" stroke-width="1.5"/>
    <text x="190" y="4" fill="#c9d1d9">资产 B</text>
  </g>

  <!-- ===== 分隔线 ===== -->
  <line x1="50" y1="250" x2="770" y2="250"
        stroke="#21262d" stroke-width="1"/>

  <!-- ===== 下半：横向柱状图（vs N 基准 + 用户实盘）===== -->
  <text x="50" y="278" fill="#c9d1d9" class="title">🏆 vs 9 基准 · 截至今日累计涨幅 (30 天，sample size 较小不构成 alpha 证据)</text>

  <line x1="658.8" y1="285" x2="658.8" y2="515" stroke="#30363d" stroke-width="1" stroke-dasharray="3 3"/><text x="658.8" y="282" text-anchor="middle" fill="#6e7681" class="label">0%</text>
  <text x="192" y="305.0" text-anchor="end" fill="#c9d1d9" class="label" font-weight="normal">Wealthfront (年化 6.2%)</text>
<rect x="658.8" y="293" width="60.7" height="16" fill="#58a6ff" opacity="0.7" rx="2"/>
<text x="725.5" y="305.0" text-anchor="start" fill="#58a6ff" class="label" font-weight="normal">+0.50%</text>
<text x="192" y="327.0" text-anchor="end" fill="#c9d1d9" class="label" font-weight="normal">Betterment (年化 6.1%)</text>
<rect x="658.8" y="315" width="59.7" height="16" fill="#79c0ff" opacity="0.7" rx="2"/>
<text x="724.5" y="327.0" text-anchor="start" fill="#79c0ff" class="label" font-weight="normal">+0.49%</text>
<text x="192" y="349.0" text-anchor="end" fill="#c9d1d9" class="label" font-weight="normal">蚂蚁帮你投 (年化 5.16%)</text>
<rect x="658.8" y="337" width="50.7" height="16" fill="#bc8cff" opacity="0.7" rx="2"/>
<text x="715.5" y="349.0" text-anchor="start" fill="#bc8cff" class="label" font-weight="normal">+0.41%</text>
<text x="192" y="371.0" text-anchor="end" fill="#c9d1d9" class="label" font-weight="normal">1 年定存 (1.5%)</text>
<rect x="658.8" y="359" width="15.0" height="16" fill="#6e7681" opacity="0.7" rx="2"/>
<text x="679.8" y="371.0" text-anchor="start" fill="#6e7681" class="label" font-weight="normal">+0.12%</text>
<text x="192" y="393.0" text-anchor="end" fill="#c9d1d9" class="label" font-weight="normal">余额宝 (1.3%)</text>
<rect x="658.8" y="381" width="13.0" height="16" fill="#7d8590" opacity="0.7" rx="2"/>
<text x="677.8" y="393.0" text-anchor="start" fill="#7d8590" class="label" font-weight="normal">+0.11%</text>
<text x="192" y="415.0" text-anchor="end" fill="#c9d1d9" class="label" font-weight="normal">沪深300</text>
<rect x="658.8" y="403" width="0.0" height="16" fill="#e3b341" opacity="0.7" rx="2"/>
<text x="664.8" y="415.0" text-anchor="start" fill="#e3b341" class="label" font-weight="normal">+0.00%</text>
<text x="192" y="437.0" text-anchor="end" fill="#d29922" class="label" font-weight="bold">★ 我的实盘</text>
<rect x="526.3" y="425" width="132.5" height="16" fill="#d29922" opacity="1" rx="2"/>
<text x="520.3" y="437.0" text-anchor="end" fill="#d29922" class="label" font-weight="bold">-1.08%</text>
<text x="192" y="459.0" text-anchor="end" fill="#c9d1d9" class="label" font-weight="normal">易方达蓝筹 005827</text>
<rect x="303.3" y="447" width="355.5" height="16" fill="#3fb950" opacity="0.7" rx="2"/>
<text x="297.3" y="459.0" text-anchor="end" fill="#3fb950" class="label" font-weight="normal">-2.90%</text>
<text x="192" y="481.0" text-anchor="end" fill="#c9d1d9" class="label" font-weight="normal">兴全合宜 163417</text>
<rect x="244.7" y="469" width="414.1" height="16" fill="#56d364" opacity="0.7" rx="2"/>
<text x="250.7" y="481.0" text-anchor="start" fill="#f0f6fc" class="label" font-weight="normal">-3.38%</text>
<text x="192" y="503.0" text-anchor="end" fill="#c9d1d9" class="label" font-weight="normal">招商白酒 161725</text>
<rect x="200.0" y="491" width="458.8" height="16" fill="#2ea043" opacity="0.7" rx="2"/>
<text x="206.0" y="503.0" text-anchor="start" fill="#f0f6fc" class="label" font-weight="normal">-3.75%</text>

  <!-- 口径脚注：两侧统计口径不同，不可直接比大小（issue #179 P1-A③）-->
  <text x="50" y="548" fill="#6e7681" class="label">口径：★ 实盘 = 现市值/累计成本 −1（分批建仓，含加仓时点效应）；基准 = 窗口首日一次性买入。口径不同，只看方向不比大小。</text>
</svg>
