<svg xmlns="http://www.w3.org/2000/svg" viewBox="0 0 800 342" role="img" aria-label="PnL chart with benchmark bars">
  <style>
    .label { font-family: ui-monospace, SFMono-Regular, Menlo, monospace; font-size: 11px; }
    .title { font-family: -apple-system, "Segoe UI", sans-serif; font-size: 13px; font-weight: bold; }
  </style>
  <rect width="800" height="342" fill="#0d1117"/>

  <!-- ===== 上半：折线图（用户三线趋势）===== -->
  <text x="50" y="20" fill="#c9d1d9" class="title">📈 实盘 PnL 趋势 (最近 30 天)</text>
  <line x1="50" y1="134.2" x2="770" y2="134.2"
        stroke="#30363d" stroke-width="1" stroke-dasharray="4 4"/>
  <text x="44" y="138.2" text-anchor="end" fill="#6e7681" class="label">0%</text>
  <text x="44" y="40" text-anchor="end" fill="#3fb950" class="label">+</text>
  <text x="44" y="208" text-anchor="end" fill="#f85149" class="label">−</text>
  <text x="50" y="228" fill="#6e7681" class="label">30 天前</text>
  <text x="770" y="228" text-anchor="end" fill="#6e7681" class="label">今天</text>

  <polyline points="50.0,83.4 55.3,83.4 60.7,83.4 66.0,83.4 71.3,83.4 76.7,83.4 82.0,83.4 87.3,83.4 92.7,83.2 98.0,83.2 103.3,83.2 108.7,83.2 114.0,83.2 119.3,83.2 124.7,83.2 130.0,83.2 135.3,81.0 140.7,81.0 146.0,81.0 151.3,81.0 156.7,81.0 162.0,81.0 167.3,81.0 172.7,81.0 178.0,74.2 183.3,74.2 188.7,74.2 194.0,74.2 199.3,74.2 204.7,74.2 210.0,74.2 215.3,74.2 220.7,71.4 226.0,71.4 231.3,71.4 236.7,71.4 242.0,71.4 247.3,71.4 252.7,71.4 258.0,71.4 263.3,67.5 268.7,67.5 274.0,67.5 279.3,67.5 284.7,67.5 290.0,67.5 295.3,67.5 300.7,67.5 306.0,65.4 311.3,65.4 316.7,65.4 322.0,65.4 327.3,65.4 332.7,65.4 338.0,65.4 343.3,65.4 348.7,63.2 354.0,63.2 359.3,63.2 364.7,62.6 370.0,62.6 375.3,62.6 380.7,62.6 386.0,62.6 391.3,60.6 396.7,60.6 402.0,60.6 407.3,60.6 412.7,60.6 418.0,59.5 423.3,59.5 428.7,59.5 434.0,56.4 439.3,56.4 444.7,56.4 450.0,56.4 455.3,56.4 460.7,56.4 466.0,56.4 471.3,56.4 476.7,56.8 482.0,56.8 487.3,56.8 492.7,56.8 498.0,56.8 503.3,56.8 508.7,56.8 514.0,56.8 519.3,62.0 524.7,62.0 530.0,62.0 535.3,62.0 540.7,62.0 546.0,62.0 551.3,62.0 556.7,62.0 562.0,70.4 567.3,70.4 572.7,70.4 578.0,70.4 583.3,70.4 588.7,70.4 594.0,70.4 599.3,70.4 604.7,74.2 610.0,74.2 615.3,74.2 620.7,74.2 626.0,74.2 631.3,74.2 636.7,74.2 642.0,74.2 647.3,82.4 652.7,82.4 658.0,82.4 663.3,82.4 668.7,82.4 674.0,82.4 679.3,82.4 684.7,82.4 690.0,64.8 695.3,64.8 700.7,64.8 706.0,64.8 711.3,64.8 716.7,64.8 722.0,64.8 727.3,64.8 732.7,50.8 738.0,50.8 743.3,50.8 748.7,50.8 754.0,50.8 759.3,50.8 764.7,50.8 770.0,50.8" fill="none" stroke="#58a6ff" stroke-width="1.5" opacity="0.85"/>
  <polyline points="50.0,137.8 55.3,139.9 60.7,140.9 66.0,140.6 71.3,140.1 76.7,141.5 82.0,140.7 87.3,145.0 92.7,143.6 98.0,148.1 103.3,148.4 108.7,147.1 114.0,146.8 119.3,145.6 124.7,144.6 130.0,142.8 135.3,140.7 140.7,141.6 146.0,141.5 151.3,142.6 156.7,142.3 162.0,143.7 167.3,144.1 172.7,144.6 178.0,141.6 183.3,142.7 188.7,142.5 194.0,142.7 199.3,143.4 204.7,144.2 210.0,143.8 215.3,145.3 220.7,141.8 226.0,142.9 231.3,143.4 236.7,143.4 242.0,144.1 247.3,142.6 252.7,144.4 258.0,144.3 263.3,144.4 268.7,146.5 274.0,145.0 279.3,147.8 284.7,143.9 290.0,148.8 295.3,149.0 300.7,149.7 306.0,148.3 311.3,153.9 316.7,156.4 322.0,155.3 327.3,154.6 332.7,155.6 338.0,152.6 343.3,146.9 348.7,144.1 354.0,143.6 359.3,143.3 364.7,142.5 370.0,143.3 375.3,140.7 380.7,142.9 386.0,140.5 391.3,146.5 396.7,147.4 402.0,143.6 407.3,141.6 412.7,141.8 418.0,141.8 423.3,142.9 428.7,144.6 434.0,145.9 439.3,147.1 444.7,147.6 450.0,148.5 455.3,148.9 460.7,148.9 466.0,148.4 471.3,149.1 476.7,149.7 482.0,147.3 487.3,146.2 492.7,147.7 498.0,148.2 503.3,147.1 508.7,143.8 514.0,147.7 519.3,148.3 524.7,149.7 530.0,150.3 535.3,149.0 540.7,148.3 546.0,148.3 551.3,150.9 556.7,159.4 562.0,162.3 567.3,160.5 572.7,161.5 578.0,160.8 583.3,162.2 588.7,161.7 594.0,160.6 599.3,166.5 604.7,174.4 610.0,175.8 615.3,177.2 620.7,174.2 626.0,177.1 631.3,176.8 636.7,178.8 642.0,180.5 647.3,187.6 652.7,189.2 658.0,186.4 663.3,185.5 668.7,185.7 674.0,185.8 679.3,186.9 684.7,186.9 690.0,174.6 695.3,176.3 700.7,176.4 706.0,178.0 711.3,173.8 716.7,174.0 722.0,175.9 727.3,177.3 732.7,164.8 738.0,164.6 743.3,163.4 748.7,164.1 754.0,161.8 759.3,161.3 764.7,161.1 770.0,163.5" fill="none" stroke="#f0a500" stroke-width="1.5" opacity="0.85"/>
  <polyline points="50.0,119.8 55.3,121.2 60.7,121.8 66.0,121.6 71.3,121.3 76.7,122.2 82.0,121.7 87.3,124.6 92.7,123.5 98.0,126.6 103.3,126.8 108.7,126.0 114.0,125.8 119.3,125.0 124.7,124.3 130.0,123.1 135.3,120.9 140.7,121.5 146.0,121.5 151.3,122.1 156.7,121.9 162.0,122.9 167.3,123.2 172.7,123.5 178.0,119.2 183.3,120.0 188.7,119.8 194.0,120.0 199.3,120.4 204.7,121.0 210.0,120.7 215.3,121.7 220.7,118.4 226.0,119.2 231.3,119.5 236.7,119.5 242.0,119.9 247.3,119.0 252.7,120.1 258.0,120.1 263.3,118.9 268.7,120.3 274.0,119.3 279.3,121.2 284.7,118.5 290.0,121.8 295.3,122.0 300.7,122.5 306.0,120.9 311.3,124.6 316.7,126.3 322.0,125.6 327.3,125.1 332.7,125.8 338.0,123.8 343.3,119.9 348.7,117.3 354.0,117.0 359.3,116.8 364.7,116.0 370.0,116.6 375.3,114.8 380.7,116.3 386.0,114.7 391.3,118.1 396.7,118.7 402.0,116.1 407.3,114.8 412.7,115.0 418.0,114.6 423.3,115.3 428.7,116.4 434.0,116.3 439.3,117.0 444.7,117.4 450.0,118.0 455.3,118.2 460.7,118.3 466.0,117.9 471.3,118.4 476.7,119.0 482.0,117.4 487.3,116.7 492.7,117.6 498.0,118.0 503.3,117.3 508.7,115.1 514.0,117.7 519.3,119.8 524.7,120.7 530.0,121.1 535.3,120.2 540.7,119.8 546.0,119.8 551.3,121.5 556.7,127.2 562.0,132.2 567.3,131.0 572.7,131.6 578.0,131.2 583.3,132.1 588.7,131.8 594.0,131.0 599.3,135.0 604.7,141.6 610.0,142.6 615.3,143.5 620.7,141.5 626.0,143.4 631.3,143.2 636.7,144.6 642.0,145.8 647.3,153.2 652.7,154.3 658.0,152.4 663.3,151.8 668.7,151.9 674.0,152.0 679.3,152.8 684.7,152.8 690.0,138.8 695.3,139.8 700.7,139.9 706.0,140.9 711.3,138.2 716.7,138.3 722.0,139.5 727.3,140.5 732.7,127.4 738.0,127.3 743.3,126.5 748.7,126.9 754.0,125.4 759.3,125.1 764.7,124.9 770.0,126.5" fill="none" stroke="#d29922" stroke-width="2.5"/>
  <text x="760" y="48" text-anchor="end" fill="#3fb950" font-size="22" font-weight="bold">▲</text>

  <!-- 折线图图例 -->
  <g transform="translate(58, 42)" class="label">
    <line x1="0" y1="0" x2="14" y2="0" stroke="#d29922" stroke-width="2.5"/>
    <text x="20" y="4" fill="#c9d1d9" font-weight="bold">Total</text>
    <line x1="80" y1="0" x2="94" y2="0" stroke="#58a6ff" stroke-width="1.5"/>
    <text x="100" y="4" fill="#c9d1d9">NDQ.AX</text>
    <line x1="170" y1="0" x2="184" y2="0" stroke="#f0a500" stroke-width="1.5"/>
    <text x="190" y="4" fill="#c9d1d9">Gold</text>
  </g>

  <!-- ===== 分隔线 ===== -->
  <line x1="50" y1="250" x2="770" y2="250"
        stroke="#21262d" stroke-width="1"/>

  <!-- ===== 下半：横向柱状图（vs N 基准 + 用户实盘）===== -->
  <text x="50" y="278" fill="#c9d1d9" class="title">🏆 vs 9 基准 · 截至今日累计涨幅 (60 天，sample size 较小不构成 alpha 证据)</text>

  <line x1="320.4" y1="285" x2="320.4" y2="317" stroke="#30363d" stroke-width="1" stroke-dasharray="3 3"/><text x="320.4" y="282" text-anchor="middle" fill="#6e7681" class="label">0%</text>
  <text x="192" y="305.0" text-anchor="end" fill="#d29922" class="label" font-weight="bold">★ 我的实盘</text>
<rect x="320.4" y="293" width="399.6" height="16" fill="#d29922" opacity="1" rx="2"/>
<text x="726.0" y="305.0" text-anchor="start" fill="#d29922" class="label" font-weight="bold">+1.66%</text>
</svg>
