<svg xmlns="http://www.w3.org/2000/svg" viewBox="0 0 800 342" role="img" aria-label="PnL chart with benchmark bars">
  <style>
    .label { font-family: ui-monospace, SFMono-Regular, Menlo, monospace; font-size: 11px; }
    .title { font-family: -apple-system, "Segoe UI", sans-serif; font-size: 13px; font-weight: bold; }
  </style>
  <rect width="800" height="342" fill="#0d1117"/>

  <!-- ===== 上半：折线图（用户三线趋势）===== -->
  <text x="50" y="20" fill="#c9d1d9" class="title">📈 实盘 PnL 趋势 (最近 30 天)</text>
  <line x1="50" y1="134.8" x2="770" y2="134.8"
        stroke="#30363d" stroke-width="1" stroke-dasharray="4 4"/>
  <text x="44" y="138.8" text-anchor="end" fill="#6e7681" class="label">0%</text>
  <text x="44" y="40" text-anchor="end" fill="#3fb950" class="label">+</text>
  <text x="44" y="208" text-anchor="end" fill="#f85149" class="label">−</text>
  <text x="50" y="228" fill="#6e7681" class="label">30 天前</text>
  <text x="770" y="228" text-anchor="end" fill="#6e7681" class="label">今天</text>

  <polyline points="50.0,82.1 55.0,82.1 60.1,82.1 65.1,82.1 70.1,82.1 75.2,82.1 80.2,82.1 85.2,82.1 90.3,75.4 95.3,75.4 100.3,75.4 105.4,75.4 110.4,75.4 115.5,75.4 120.5,75.4 125.5,75.4 130.6,72.6 135.6,72.6 140.6,72.6 145.7,72.6 150.7,72.6 155.7,72.6 160.8,72.6 165.8,72.6 170.8,68.7 175.9,68.7 180.9,68.7 185.9,68.7 191.0,68.7 196.0,68.7 201.0,68.7 206.1,68.7 211.1,66.7 216.2,66.7 221.2,66.7 226.2,66.7 231.3,66.7 236.3,66.7 241.3,66.7 246.4,66.7 251.4,64.5 256.4,64.5 261.5,64.5 266.5,63.9 271.5,63.9 276.6,63.9 281.6,63.9 286.6,63.9 291.7,62.0 296.7,62.0 301.7,62.0 306.8,62.0 311.8,62.0 316.9,60.9 321.9,60.9 326.9,60.9 332.0,57.8 337.0,57.8 342.0,57.8 347.1,57.8 352.1,57.8 357.1,57.8 362.2,57.8 367.2,57.8 372.2,58.1 377.3,58.1 382.3,58.1 387.3,58.1 392.4,58.1 397.4,58.1 402.4,58.1 407.5,58.1 412.5,63.3 417.6,63.3 422.6,63.3 427.6,63.3 432.7,63.3 437.7,63.3 442.7,63.3 447.8,63.3 452.8,71.6 457.8,71.6 462.9,71.6 467.9,71.6 472.9,71.6 478.0,71.6 483.0,71.6 488.0,71.6 493.1,75.4 498.1,75.4 503.1,75.4 508.2,75.4 513.2,75.4 518.3,75.4 523.3,75.4 528.3,75.4 533.4,83.5 538.4,83.5 543.4,83.5 548.5,83.5 553.5,83.5 558.5,83.5 563.6,83.5 568.6,83.5 573.6,66.1 578.7,66.1 583.7,66.1 588.7,66.1 593.8,66.1 598.8,66.1 603.8,66.1 608.9,66.1 613.9,52.2 619.0,52.2 624.0,52.2 629.0,52.2 634.1,52.2 639.1,52.2 644.1,52.2 649.2,52.2 654.2,59.8 659.2,59.8 664.3,59.8 669.3,59.8 674.3,59.8 679.4,59.8 684.4,59.8 689.4,59.8 694.5,55.9 699.5,55.9 704.5,55.9 709.6,55.9 714.6,55.9 719.7,55.9 724.7,55.9 729.7,55.9 734.8,50.8 739.8,50.8 744.8,50.8 749.9,50.8 754.9,50.8 759.9,50.8 765.0,50.8 770.0,50.8" fill="none" stroke="#58a6ff" stroke-width="1.5" opacity="0.85"/>
  <polyline points="50.0,141.2 55.0,142.1 60.1,142.0 65.1,143.0 70.1,142.7 75.2,144.1 80.2,144.6 85.2,145.1 90.3,142.1 95.3,143.2 100.3,143.0 105.4,143.2 110.4,143.9 115.5,144.7 120.5,144.3 125.5,145.7 130.6,142.3 135.6,143.4 140.6,143.9 145.7,143.9 150.7,144.5 155.7,143.1 160.8,144.8 165.8,144.8 170.8,144.9 175.9,146.9 180.9,145.5 185.9,148.2 191.0,144.3 196.0,149.2 201.0,149.5 206.1,150.2 211.1,148.7 216.2,154.2 221.2,156.7 226.2,155.6 231.3,154.9 236.3,155.9 241.3,153.0 246.4,147.3 251.4,144.6 256.4,144.1 261.5,143.8 266.5,143.0 271.5,143.8 276.6,141.2 281.6,143.4 286.6,141.0 291.7,147.0 296.7,147.8 301.7,144.1 306.8,142.1 311.8,142.3 316.9,142.3 321.9,143.3 326.9,145.0 332.0,146.4 337.0,147.5 342.0,148.0 347.1,148.9 352.1,149.3 357.1,149.3 362.2,148.8 367.2,149.6 372.2,150.1 377.3,147.7 382.3,146.7 387.3,148.1 392.4,148.7 397.4,147.6 402.4,144.3 407.5,148.1 412.5,148.7 417.6,150.1 422.6,150.7 427.6,149.4 432.7,148.7 437.7,148.7 442.7,151.3 447.8,159.7 452.8,162.6 457.8,160.8 462.9,161.8 467.9,161.1 472.9,162.5 478.0,162.0 483.0,160.9 488.0,166.7 493.1,174.5 498.1,175.9 503.1,177.3 508.2,174.4 513.2,177.2 518.3,176.9 523.3,178.9 528.3,180.6 533.4,187.6 538.4,189.2 543.4,186.4 548.5,185.6 553.5,185.7 558.5,185.8 563.6,187.0 568.6,186.9 573.6,174.7 578.7,176.4 583.7,176.5 588.7,178.1 593.8,174.0 598.8,174.2 603.8,176.0 608.9,177.4 613.9,165.0 619.0,164.8 624.0,163.7 629.0,164.3 634.1,162.0 639.1,161.6 644.1,161.4 649.2,163.8 654.2,160.8 659.2,160.7 664.3,161.9 669.3,161.3 674.3,162.3 679.4,160.9 684.4,160.8 689.4,159.6 694.5,162.8 699.5,162.4 704.5,162.3 709.6,163.4 714.6,165.7 719.7,167.2 724.7,168.8 729.7,168.9 734.8,174.3 739.8,175.9 744.8,179.9 749.9,179.0 754.9,176.6 759.9,178.2 765.0,178.6 770.0,178.9" fill="none" stroke="#f0a500" stroke-width="1.5" opacity="0.85"/>
  <polyline points="50.0,121.6 55.0,122.2 60.1,122.2 65.1,122.8 70.1,122.6 75.2,123.6 80.2,123.9 85.2,124.2 90.3,120.0 95.3,120.7 100.3,120.5 105.4,120.7 110.4,121.1 115.5,121.7 120.5,121.4 125.5,122.4 130.6,119.2 135.6,119.9 140.6,120.3 145.7,120.2 150.7,120.7 155.7,119.7 160.8,120.9 165.8,120.8 170.8,119.6 175.9,121.0 180.9,120.0 185.9,121.9 191.0,119.3 196.0,122.5 201.0,122.7 206.1,123.2 211.1,121.6 216.2,125.3 221.2,127.0 226.2,126.2 231.3,125.8 236.3,126.4 241.3,124.5 246.4,120.7 251.4,118.0 256.4,117.7 261.5,117.5 266.5,116.8 271.5,117.3 276.6,115.6 281.6,117.1 286.6,115.4 291.7,118.8 296.7,119.4 301.7,116.9 306.8,115.6 311.8,115.7 316.9,115.4 321.9,116.0 326.9,117.2 332.0,117.0 337.0,117.8 342.0,118.1 347.1,118.7 352.1,119.0 357.1,119.0 362.2,118.7 367.2,119.2 372.2,119.7 377.3,118.1 382.3,117.4 387.3,118.4 392.4,118.8 397.4,118.0 402.4,115.8 407.5,118.4 412.5,120.5 417.6,121.4 422.6,121.8 427.6,120.9 432.7,120.5 437.7,120.5 442.7,122.3 447.8,127.9 452.8,132.8 457.8,131.6 462.9,132.2 467.9,131.8 472.9,132.7 478.0,132.4 483.0,131.6 488.0,135.5 493.1,142.1 498.1,143.1 503.1,144.0 508.2,142.0 513.2,143.9 518.3,143.7 523.3,145.1 528.3,146.2 533.4,153.6 538.4,154.7 543.4,152.8 548.5,152.2 553.5,152.3 558.5,152.4 563.6,153.2 568.6,153.2 573.6,139.3 578.7,140.3 583.7,140.4 588.7,141.4 593.8,138.7 598.8,138.8 603.8,140.1 608.9,141.0 613.9,128.0 619.0,127.9 624.0,127.1 629.0,127.6 634.1,126.0 639.1,125.8 644.1,125.6 649.2,127.2 654.2,129.8 659.2,129.8 664.3,130.6 669.3,130.2 674.3,130.9 679.4,129.9 684.4,129.8 689.4,129.0 694.5,130.1 699.5,129.9 704.5,129.8 709.6,130.6 714.6,132.2 719.7,133.2 724.7,134.4 729.7,134.4 734.8,136.6 739.8,137.7 744.8,140.5 749.9,139.9 754.9,138.2 759.9,139.3 765.0,139.6 770.0,139.8" fill="none" stroke="#d29922" stroke-width="2.5"/>
  <text x="760" y="48" text-anchor="end" fill="#f85149" font-size="22" font-weight="bold">▼</text>

  <!-- 折线图图例 -->
  <g transform="translate(58, 42)" class="label">
    <line x1="0" y1="0" x2="14" y2="0" stroke="#d29922" stroke-width="2.5"/>
    <text x="20" y="4" fill="#c9d1d9" font-weight="bold">Total</text>
    <line x1="80" y1="0" x2="94" y2="0" stroke="#58a6ff" stroke-width="1.5"/>
    <text x="100" y="4" fill="#c9d1d9">NDQ.AX</text>
    <line x1="170" y1="0" x2="184" y2="0" stroke="#f0a500" stroke-width="1.5"/>
    <text x="190" y="4" fill="#c9d1d9">Gold</text>
  </g>

  <!-- ===== 分隔线 ===== -->
  <line x1="50" y1="250" x2="770" y2="250"
        stroke="#21262d" stroke-width="1"/>

  <!-- ===== 下半：横向柱状图（vs N 基准 + 用户实盘）===== -->
  <text x="50" y="278" fill="#c9d1d9" class="title">🏆 vs 9 基准 · 截至今日累计涨幅 (60 天，sample size 较小不构成 alpha 证据)</text>

  <line x1="558.0" y1="285" x2="558.0" y2="317" stroke="#30363d" stroke-width="1" stroke-dasharray="3 3"/><text x="558.0" y="282" text-anchor="middle" fill="#6e7681" class="label">0%</text>
  <text x="192" y="305.0" text-anchor="end" fill="#d29922" class="label" font-weight="bold">★ 我的实盘</text>
<rect x="200.0" y="293" width="358.0" height="16" fill="#d29922" opacity="1" rx="2"/>
<text x="194.0" y="305.0" text-anchor="end" fill="#d29922" class="label" font-weight="bold">-1.10%</text>
</svg>
