<svg xmlns="http://www.w3.org/2000/svg" viewBox="0 0 800 558" role="img" aria-label="PnL chart with benchmark bars">
  <style>
    .label { font-family: ui-monospace, SFMono-Regular, Menlo, monospace; font-size: 11px; }
    .title { font-family: -apple-system, "Segoe UI", sans-serif; font-size: 13px; font-weight: bold; }
  </style>
  <rect width="800" height="558" fill="#0d1117"/>

  <!-- ===== 上半：折线图（用户三线趋势）===== -->
  <text x="50" y="20" fill="#c9d1d9" class="title">📈 实盘 PnL 趋势 (最近 30 天)</text>
  <line x1="50" y1="131.1" x2="770" y2="131.1"
        stroke="#30363d" stroke-width="1" stroke-dasharray="4 4"/>
  <text x="44" y="135.1" text-anchor="end" fill="#6e7681" class="label">0%</text>
  <text x="44" y="40" text-anchor="end" fill="#3fb950" class="label">+</text>
  <text x="44" y="208" text-anchor="end" fill="#f85149" class="label">−</text>
  <text x="50" y="228" fill="#6e7681" class="label">30 天前</text>
  <text x="770" y="228" text-anchor="end" fill="#6e7681" class="label">今天</text>

  <polyline points="50.0,52.4 55.3,52.4 60.6,52.4 65.9,52.4 71.2,52.4 76.5,52.4 81.8,52.4 87.1,52.4 92.4,59.6 97.6,59.6 102.9,59.6 108.2,59.6 113.5,59.6 118.8,59.6 124.1,59.6 129.4,59.6 134.7,55.9 140.0,55.9 145.3,55.9 150.6,55.9 155.9,55.9 161.2,55.9 166.5,55.9 171.8,55.9 177.1,51.0 182.4,51.0 187.6,51.0 192.9,51.0 198.2,51.0 203.5,51.0 208.8,51.0 214.1,51.0 219.4,50.8 224.7,50.8 230.0,50.8 235.3,50.8 240.6,50.8 245.9,50.8 251.2,50.8 256.5,50.8 261.8,57.2 267.1,57.2 272.4,57.2 277.6,57.2 282.9,57.2 288.2,57.2 293.5,57.2 298.8,57.2 304.1,53.0 309.4,53.0 314.7,53.0 320.0,53.0 325.3,53.0 330.6,53.0 335.9,53.0 341.2,53.0 346.5,59.2 351.8,59.2 357.1,59.2 362.4,59.2 367.6,59.2 372.9,59.2 378.2,59.2 383.5,64.8 388.8,51.9 394.1,51.9 399.4,51.9 404.7,51.9 410.0,51.9 415.3,51.9 420.6,51.9 425.9,51.9 431.2,51.6 436.5,51.6 441.8,51.6 447.1,51.6 452.4,51.6 457.6,51.6 462.9,51.6 468.2,51.6 473.5,57.9 478.8,57.9 484.1,57.9 489.4,57.9 494.7,57.9 500.0,57.9 505.3,57.9 510.6,57.9 515.9,68.2 521.2,68.2 526.5,68.2 531.8,68.2 537.1,68.2 542.4,68.2 547.6,68.2 552.9,68.2 658.8,69.8 664.1,69.8 669.4,69.8 674.7,69.8 680.0,69.8 685.3,64.2 690.6,64.2 695.9,64.2 701.2,64.2 706.5,64.2 711.8,64.2 717.1,64.2 722.4,64.2 727.6,69.7 732.9,69.7 738.2,69.7 743.5,69.7 748.8,69.7 754.1,69.7 759.4,69.7 764.7,69.7 770.0,66.9" fill="none" stroke="#58a6ff" stroke-width="1.5" opacity="0.85"/>
  <polyline points="50.0,159.9 55.3,159.7 60.6,158.6 65.9,159.2 71.2,157.0 76.5,156.7 81.8,156.4 87.1,158.7 92.4,155.9 97.6,155.8 102.9,156.9 108.2,156.4 113.5,157.3 118.8,156.0 124.1,155.8 129.4,154.7 134.7,157.7 140.0,157.4 145.3,157.3 150.6,158.4 155.9,160.5 161.2,161.9 166.5,163.5 171.8,163.6 177.1,168.7 182.4,170.2 187.6,174.1 192.9,173.2 198.2,170.9 203.5,172.5 208.8,172.8 214.1,173.1 219.4,168.5 224.7,171.8 230.0,173.3 235.3,175.3 240.6,176.0 245.9,174.8 251.2,175.4 256.5,174.4 261.8,176.3 267.1,179.9 272.4,179.0 277.6,176.5 282.9,177.4 288.2,179.2 293.5,184.9 298.8,182.8 304.1,185.5 309.4,185.8 314.7,185.1 320.0,186.0 325.3,185.4 330.6,186.7 335.9,184.1 341.2,183.7 346.5,183.4 351.8,185.1 357.1,183.7 362.4,182.3 367.6,181.5 372.9,180.6 378.2,181.0 383.5,176.8 388.8,186.2 394.1,189.2 399.4,186.9 404.7,183.1 410.0,184.5 415.3,183.5 420.6,184.7 425.9,181.9 431.2,186.4 436.5,186.9 441.8,187.1 447.1,187.9 452.4,187.6 457.6,186.7 462.9,183.3 468.2,177.5 473.5,180.4 478.8,180.2 484.1,179.9 489.4,178.8 494.7,178.3 500.0,180.1 505.3,174.5 510.6,174.7 515.9,172.8 521.2,168.8 526.5,169.2 531.8,169.5 537.1,169.2 542.4,169.9 547.6,169.9 552.9,170.8 658.8,175.8 664.1,175.3 669.4,175.9 674.7,174.9 680.0,174.9 685.3,173.9 690.6,174.6 695.9,175.4 701.2,175.7 706.5,177.5 711.8,177.2 717.1,177.6 722.4,176.4 727.6,186.9 732.9,185.5 738.2,184.9 743.5,184.4 748.8,184.9 754.1,185.1 759.4,185.1 764.7,180.2 770.0,182.5" fill="none" stroke="#f0a500" stroke-width="1.5" opacity="0.85"/>
  <polyline points="50.0,124.6 55.3,124.5 60.6,123.8 65.9,124.2 71.2,122.7 76.5,122.5 81.8,122.3 87.1,123.8 92.4,126.3 97.6,126.3 102.9,127.1 108.2,126.7 113.5,127.4 118.8,126.4 124.1,126.3 129.4,125.6 134.7,126.6 140.0,126.4 145.3,126.3 150.6,127.1 155.9,128.6 161.2,129.6 166.5,130.7 171.8,130.7 177.1,132.8 182.4,133.9 187.6,136.5 192.9,135.9 198.2,134.4 203.5,135.4 208.8,135.7 214.1,135.9 219.4,132.6 224.7,134.8 230.0,135.9 235.3,137.3 240.6,137.8 245.9,137.0 251.2,137.4 256.5,136.7 261.8,140.2 267.1,142.7 272.4,142.1 277.6,140.4 282.9,141.0 288.2,142.3 293.5,146.2 298.8,145.1 304.1,145.8 309.4,145.9 314.7,145.5 320.0,146.1 325.3,145.7 330.6,146.6 335.9,144.7 341.2,144.5 346.5,146.1 351.8,147.3 357.1,146.3 362.4,145.3 367.6,144.8 372.9,144.1 378.2,144.4 383.5,143.3 388.8,146.0 394.1,148.1 399.4,146.5 404.7,143.8 410.0,144.8 415.3,144.1 420.6,145.0 425.9,143.0 431.2,146.0 436.5,146.3 441.8,146.5 447.1,147.0 452.4,146.8 457.6,146.2 462.9,143.8 468.2,139.7 473.5,143.7 478.8,143.6 484.1,143.4 489.4,142.6 494.7,142.2 500.0,143.5 505.3,139.6 510.6,139.7 515.9,141.4 521.2,138.6 526.5,138.9 531.8,139.1 537.1,138.9 542.4,139.4 547.6,139.4 552.9,140.0 558.2,131.1 563.5,131.1 568.8,131.1 574.1,131.1 579.4,131.1 584.7,131.1 590.0,131.1 595.3,131.1 600.6,131.1 605.9,131.1 611.2,131.1 616.5,131.1 621.8,131.1 627.1,131.1 632.4,131.1 637.6,131.1 642.9,131.1 648.2,131.1 653.5,131.1 658.8,143.9 664.1,143.5 669.4,144.0 674.7,143.3 680.0,143.3 685.3,140.8 690.6,141.3 695.9,141.9 701.2,142.1 706.5,143.4 711.8,143.1 717.1,143.5 722.4,142.6 727.6,151.7 732.9,150.8 738.2,150.3 743.5,150.0 748.8,150.4 754.1,150.5 759.4,150.5 764.7,147.1 770.0,147.6" fill="none" stroke="#d29922" stroke-width="2.5"/>
  <text x="760" y="48" text-anchor="end" fill="#f85149" font-size="22" font-weight="bold">▼</text>

  <!-- 折线图图例 -->
  <g transform="translate(58, 42)" class="label">
    <line x1="0" y1="0" x2="14" y2="0" stroke="#d29922" stroke-width="2.5"/>
    <text x="20" y="4" fill="#c9d1d9" font-weight="bold">Total</text>
    <line x1="80" y1="0" x2="94" y2="0" stroke="#58a6ff" stroke-width="1.5"/>
    <text x="100" y="4" fill="#c9d1d9">资产 A</text>
    <line x1="170" y1="0" x2="184" y2="0" stroke="#f0a500" stroke-width="1.5"/>
    <text x="190" y="4" fill="#c9d1d9">资产 B</text>
  </g>

  <!-- ===== 分隔线 ===== -->
  <line x1="50" y1="250" x2="770" y2="250"
        stroke="#21262d" stroke-width="1"/>

  <!-- ===== 下半：横向柱状图（vs N 基准 + 用户实盘）===== -->
  <text x="50" y="278" fill="#c9d1d9" class="title">🏆 vs 9 基准 · 截至今日累计涨幅 (60 天，sample size 较小不构成 alpha 证据)</text>

  <line x1="582.7" y1="285" x2="582.7" y2="515" stroke="#30363d" stroke-width="1" stroke-dasharray="3 3"/><text x="582.7" y="282" text-anchor="middle" fill="#6e7681" class="label">0%</text>
  <text x="192" y="305.0" text-anchor="end" fill="#c9d1d9" class="label" font-weight="normal">兴全合宜 163417</text>
<rect x="582.7" y="293" width="137.3" height="16" fill="#56d364" opacity="0.7" rx="2"/>
<text x="726.0" y="305.0" text-anchor="start" fill="#56d364" class="label" font-weight="normal">+2.13%</text>
<text x="192" y="327.0" text-anchor="end" fill="#c9d1d9" class="label" font-weight="normal">沪深300</text>
<rect x="582.7" y="315" width="75.6" height="16" fill="#e3b341" opacity="0.7" rx="2"/>
<text x="664.3" y="327.0" text-anchor="start" fill="#e3b341" class="label" font-weight="normal">+1.17%</text>
<text x="192" y="349.0" text-anchor="end" fill="#c9d1d9" class="label" font-weight="normal">Wealthfront (年化 6.2%)</text>
<rect x="582.7" y="337" width="10.6" height="16" fill="#58a6ff" opacity="0.7" rx="2"/>
<text x="599.3" y="349.0" text-anchor="start" fill="#58a6ff" class="label" font-weight="normal">+0.16%</text>
<text x="192" y="371.0" text-anchor="end" fill="#c9d1d9" class="label" font-weight="normal">Betterment (年化 6.1%)</text>
<rect x="582.7" y="359" width="10.5" height="16" fill="#79c0ff" opacity="0.7" rx="2"/>
<text x="599.1" y="371.0" text-anchor="start" fill="#79c0ff" class="label" font-weight="normal">+0.16%</text>
<text x="192" y="393.0" text-anchor="end" fill="#c9d1d9" class="label" font-weight="normal">蚂蚁帮你投 (年化 5.16%)</text>
<rect x="582.7" y="381" width="8.9" height="16" fill="#bc8cff" opacity="0.7" rx="2"/>
<text x="597.5" y="393.0" text-anchor="start" fill="#bc8cff" class="label" font-weight="normal">+0.14%</text>
<text x="192" y="415.0" text-anchor="end" fill="#c9d1d9" class="label" font-weight="normal">1 年定存 (1.5%)</text>
<rect x="582.7" y="403" width="2.6" height="16" fill="#6e7681" opacity="0.7" rx="2"/>
<text x="591.3" y="415.0" text-anchor="start" fill="#6e7681" class="label" font-weight="normal">+0.04%</text>
<text x="192" y="437.0" text-anchor="end" fill="#c9d1d9" class="label" font-weight="normal">余额宝 (1.3%)</text>
<rect x="582.7" y="425" width="2.3" height="16" fill="#7d8590" opacity="0.7" rx="2"/>
<text x="590.9" y="437.0" text-anchor="start" fill="#7d8590" class="label" font-weight="normal">+0.04%</text>
<text x="192" y="459.0" text-anchor="end" fill="#c9d1d9" class="label" font-weight="normal">易方达蓝筹 005827</text>
<rect x="409.0" y="447" width="173.6" height="16" fill="#3fb950" opacity="0.7" rx="2"/>
<text x="403.0" y="459.0" text-anchor="end" fill="#3fb950" class="label" font-weight="normal">-2.70%</text>
<text x="192" y="481.0" text-anchor="end" fill="#d29922" class="label" font-weight="bold">★ 我的实盘</text>
<rect x="337.3" y="469" width="245.3" height="16" fill="#d29922" opacity="1" rx="2"/>
<text x="331.3" y="481.0" text-anchor="end" fill="#d29922" class="label" font-weight="bold">-3.81%</text>
<text x="192" y="503.0" text-anchor="end" fill="#c9d1d9" class="label" font-weight="normal">招商白酒 161725</text>
<rect x="200.0" y="491" width="382.7" height="16" fill="#2ea043" opacity="0.7" rx="2"/>
<text x="206.0" y="503.0" text-anchor="start" fill="#f0f6fc" class="label" font-weight="normal">-5.94%</text>

  <!-- 口径脚注：两侧统计口径不同，不可直接比大小（issue #179 P1-A③）-->
  <text x="50" y="548" fill="#6e7681" class="label">口径：★ 实盘 = 现市值/累计成本 −1（分批建仓，含加仓时点效应）；基准 = 窗口首日一次性买入。口径不同，只看方向不比大小。</text>
</svg>
