<svg xmlns="http://www.w3.org/2000/svg" viewBox="0 0 800 280" role="img" aria-label="PnL trend chart (privacy-preserving, no absolute numbers)">
  <style>
    .label { font-family: ui-monospace, SFMono-Regular, Menlo, monospace; font-size: 11px; }
  </style>
  <!-- 背景 -->
  <rect width="800" height="280" fill="#0d1117"/>
  <!-- 0% 基线（虚线灰）-->
  <line x1="50" y1="125.5" x2="770" y2="125.5"
        stroke="#30363d" stroke-width="1" stroke-dasharray="4 4"/>
  <text x="44" y="129.5" text-anchor="end" fill="#6e7681" class="label">0%</text>
  <!-- y 轴方向标识（不带数字）-->
  <text x="44" y="40" text-anchor="end" fill="#3fb950" class="label">+</text>
  <text x="44" y="248" text-anchor="end" fill="#f85149" class="label">−</text>
  <!-- x 轴标签：相对时间，无具体日期 -->
  <text x="50" y="272" fill="#6e7681" class="label">30 天前</text>
  <text x="770" y="272" text-anchor="end" fill="#6e7681" class="label">今天</text>

  <!-- 三条 series 线 -->
  <polyline points="50.0,231.7 74.0,231.4 98.0,201.5 122.0,207.4 146.0,207.4 170.0,207.4 194.0,207.4 218.0,207.4 242.0,192.6 266.0,168.0 290.0,170.6 314.0,164.5 338.0,164.5 362.0,164.5 386.0,169.1 410.0,150.4 434.0,140.4 458.0,121.8 482.0,118.7 506.0,118.7 530.0,118.7 554.0,105.4 578.0,98.5 602.0,101.1 626.0,89.1 650.0,78.6 674.0,78.6 698.0,78.6 722.0,65.5 746.0,72.2 770.0,72.2" fill="none" stroke="#58a6ff" stroke-width="1.5" opacity="0.85"/>
  <polyline points="50.0,129.6 74.0,92.7 98.0,55.3 122.0,99.9 146.0,97.0 170.0,97.0 194.0,97.0 218.0,95.9 242.0,95.8 266.0,73.3 290.0,66.3 314.0,74.8 338.0,74.8 362.0,74.8 386.0,81.4 410.0,56.1 434.0,66.7 458.0,70.6 482.0,48.3 506.0,48.3 530.0,48.3 554.0,64.5 578.0,96.7 602.0,85.8 626.0,93.3 650.0,87.8 674.0,87.8 698.0,87.8 722.0,99.8 746.0,119.5 770.0,119.6" fill="none" stroke="#f0a500" stroke-width="1.5" opacity="0.85"/>
  <polyline points="50.0,150.7 74.0,121.4 98.0,85.7 122.0,122.3 146.0,119.9 170.0,119.9 194.0,119.9 218.0,119.0 242.0,115.9 266.0,93.3 290.0,88.2 314.0,93.7 338.0,93.7 362.0,93.7 386.0,99.7 410.0,76.0 434.0,82.3 458.0,81.5 482.0,63.3 506.0,63.3 530.0,63.3 554.0,73.1 578.0,97.1 602.0,89.1 626.0,92.4 650.0,85.9 674.0,85.9 698.0,85.9 722.0,92.6 746.0,109.4 770.0,109.5" fill="none" stroke="#d29922" stroke-width="2.5"/>

  <!-- 当前趋势方向箭头（不带数字）-->
  <text x="760" y="48" text-anchor="end" fill="#3fb950" font-size="22" font-weight="bold">▲</text>

  <!-- 图例 -->
  <g transform="translate(58, 42)" class="label">
    <line x1="0" y1="0" x2="14" y2="0" stroke="#d29922" stroke-width="2.5"/>
    <text x="20" y="4" fill="#c9d1d9">Total</text>
    <line x1="70" y1="0" x2="84" y2="0" stroke="#58a6ff" stroke-width="1.5"/>
    <text x="90" y="4" fill="#c9d1d9">NDQ.AX</text>
    <line x1="155" y1="0" x2="169" y2="0" stroke="#f0a500" stroke-width="1.5"/>
    <text x="175" y="4" fill="#c9d1d9">Gold</text>
  </g>
</svg>
